<?xml version="1.0" standalone="no"?>
<!DOCTYPE svg PUBLIC "-//W3C//DTD SVG 20010904//EN"
 "http://www.w3.org/TR/2001/REC-SVG-20010904/DTD/svg10.dtd">
<svg version="1.0" xmlns="http://www.w3.org/2000/svg"
 width="571.000000pt" height="149.000000pt" viewBox="0 0 571.000000 149.000000"
 preserveAspectRatio="xMidYMid meet">
<metadata>
Created by potrace 1.16, written by Peter Selinger 2001-2019
</metadata>
<g transform="translate(0.000000,149.000000) scale(0.100000,-0.100000)"
fill="#000000" stroke="none">
<path d="M663 1058 c-21 -20 -23 -21 -48 -4 -15 10 -28 16 -29 14 -1 -2 -10
-15 -19 -30 -15 -24 -20 -26 -47 -18 -28 8 -32 6 -40 -16 -6 -14 -10 -30 -10
-35 0 -5 -16 -9 -35 -9 -33 0 -35 -2 -35 -34 0 -30 -4 -34 -31 -40 -29 -6 -31
-8 -25 -38 5 -27 2 -35 -20 -53 -23 -19 -25 -23 -13 -48 11 -24 10 -30 -11
-52 l-23 -25 23 -25 c21 -22 22 -28 11 -52 -12 -25 -10 -29 13 -48 22 -18 25
-26 20 -53 -6 -30 -4 -32 25 -38 27 -6 31 -10 31 -40 0 -32 2 -34 35 -34 19 0
35 -4 35 -9 0 -5 4 -21 10 -35 8 -22 12 -24 40 -16 27 8 32 6 47 -18 9 -15 18
-28 19 -30 1 -2 14 4 29 14 25 16 27 16 50 -6 l25 -23 25 23 c25 23 26 24 55
7 29 -17 29 -17 47 10 9 15 17 29 18 30 1 2 15 -1 33 -6 29 -9 32 -8 42 25 10
30 16 34 46 34 32 0 34 2 34 34 0 30 4 35 31 41 28 6 30 9 23 38 -5 26 -2 34
21 53 28 22 28 23 11 49 -17 26 -17 28 5 51 l22 24 -22 24 c-22 23 -22 25 -5
51 17 26 17 27 -11 49 -23 19 -26 27 -21 53 7 29 5 32 -23 38 -27 6 -31 11
-31 41 0 32 -2 34 -34 34 -30 0 -36 4 -46 34 -10 33 -13 34 -42 25 -18 -5 -32
-8 -33 -6 -1 1 -9 15 -18 30 -18 27 -18 27 -47 10 -29 -16 -30 -16 -53 5 -29
27 -28 27 -54 0z m152 -136 c169 -87 208 -310 77 -445 -49 -52 -104 -78 -171
-84 -144 -13 -270 80 -302 223 -30 133 50 269 188 320 52 20 157 13 208 -14z"/>
<path d="M610 871 c-45 -9 -60 -18 -60 -36 0 -8 -11 -22 -25 -31 -23 -15 -25
-21 -25 -103 0 -117 20 -151 116 -203 l71 -38 56 24 c73 33 124 79 137 124 5
20 10 70 10 110 0 67 -2 73 -24 83 -14 7 -27 22 -30 34 -3 13 -14 26 -23 29
-27 11 -165 16 -203 7z m163 -18 c28 -4 41 -12 47 -29 5 -12 19 -28 30 -34 20
-11 22 -18 18 -100 -4 -109 -18 -132 -112 -178 l-66 -33 -63 33 c-88 47 -107
79 -107 184 0 73 2 85 20 94 11 6 22 21 26 35 4 16 15 25 32 28 45 7 135 7
175 0z"/>
<path d="M670 832 c-68 -7 -90 -14 -90 -27 0 -8 -9 -20 -20 -27 -29 -18 -29
-138 0 -185 19 -32 103 -83 136 -83 26 0 112 51 129 76 18 28 31 104 18 104
-6 0 -13 -18 -16 -41 -6 -49 -27 -74 -87 -104 l-45 -23 -47 24 c-71 36 -88 64
-88 145 0 40 4 69 10 69 6 0 15 11 21 24 9 18 22 25 58 30 63 8 141 -3 141
-20 0 -8 9 -19 20 -26 11 -7 20 -18 20 -25 0 -7 5 -13 10 -13 18 0 11 29 -10
42 -11 7 -20 18 -20 25 0 6 -6 15 -12 20 -16 9 -95 19 -128 15z"/>
<path d="M657 774 c-4 -4 -7 -18 -7 -31 0 -18 -5 -23 -25 -23 -22 0 -25 -4
-25 -40 0 -36 3 -40 24 -40 19 0 25 -6 28 -27 3 -25 7 -28 43 -28 36 0 40 3
43 28 3 21 9 27 28 27 21 0 24 4 24 40 0 36 -3 40 -24 40 -19 0 -25 6 -28 28
-3 23 -8 27 -38 30 -20 2 -39 0 -43 -4z"/>
<path d="M1217 850 c-48 -38 -31 -103 34 -125 18 -6 35 -17 37 -23 5 -15 -24
-16 -33 -2 -3 6 -17 10 -31 10 -21 0 -24 -5 -24 -34 l0 -33 58 -1 c76 -1 102
16 102 67 0 42 -19 65 -63 76 -15 4 -29 11 -32 15 -9 14 16 23 28 11 6 -6 21
-11 34 -11 19 0 23 5 23 30 0 25 -4 30 -24 30 -13 0 -37 3 -52 6 -21 4 -37 -1
-57 -16z"/>
<path d="M4595 861 c-42 -18 -60 -50 -60 -108 0 -49 3 -58 33 -84 23 -21 42
-29 70 -29 67 0 82 9 82 46 0 32 -1 33 -29 23 -54 -19 -98 30 -71 80 14 27 50
28 57 1 3 -11 14 -20 24 -20 16 0 19 8 19 45 0 43 -1 45 -27 45 -16 -1 -39 1
-53 4 -14 3 -34 2 -45 -3z"/>
<path d="M1380 836 c0 -13 5 -26 12 -28 6 -2 21 -40 33 -84 l21 -79 40 0 c37
0 40 2 48 38 5 20 12 37 16 37 4 0 11 -17 16 -37 8 -36 11 -38 48 -38 l39 0
22 79 c11 44 26 81 33 84 7 2 12 15 12 28 0 22 -4 24 -45 24 -41 0 -45 -2 -45
-24 0 -13 4 -26 9 -28 5 -1 4 -14 -2 -28 -10 -24 -11 -22 -25 28 -14 49 -17
52 -47 52 -30 0 -32 -2 -45 -57 l-14 -57 -12 30 c-7 16 -8 30 -3 32 5 2 9 15
9 28 0 23 -3 24 -60 24 -57 0 -60 -1 -60 -24z"/>
<path d="M1760 835 c0 -15 6 -25 14 -25 12 0 11 -8 -1 -52 -8 -29 -21 -58 -29
-64 -8 -6 -14 -21 -14 -33 0 -19 6 -21 50 -21 47 0 50 2 50 25 0 14 -4 25 -10
25 -5 0 -10 7 -10 16 0 10 7 14 23 12 19 -3 22 -8 19 -40 l-4 -38 61 0 c58 0
61 1 61 24 0 13 -5 26 -11 28 -5 2 -20 39 -33 83 l-23 80 -72 3 c-70 3 -71 3
-71 -23z"/>
<path d="M1990 835 c0 -14 5 -25 10 -25 6 0 10 -24 10 -54 0 -30 -4 -58 -10
-61 -5 -3 -10 -17 -10 -31 0 -23 3 -24 55 -24 52 0 55 1 55 25 0 14 -4 25 -10
25 -5 0 -10 11 -10 25 0 14 4 25 8 25 17 0 32 -25 32 -52 0 -29 27 -48 71 -48
23 0 27 45 4 54 -8 3 -15 14 -15 25 0 11 -5 23 -11 27 -8 5 -6 10 5 16 19 11
22 68 4 86 -8 8 -45 12 -100 12 -87 0 -88 0 -88 -25z"/>
<path d="M2220 835 c0 -16 6 -25 15 -25 12 0 15 -13 15 -55 0 -40 -4 -57 -15
-61 -8 -4 -15 -17 -15 -30 0 -22 4 -24 45 -24 41 0 45 2 45 25 0 14 -4 25 -10
25 -5 0 -10 15 -10 33 1 31 2 31 33 -25 31 -56 33 -58 75 -58 l42 0 0 85 c0
50 4 85 10 85 6 0 10 11 10 25 0 23 -4 25 -45 25 -41 0 -45 -2 -45 -25 0 -14
5 -25 10 -25 6 0 10 -15 10 -32 -1 -32 -2 -31 -31 25 l-29 57 -55 0 c-52 0
-55 -1 -55 -25z"/>
<path d="M2500 835 c0 -15 6 -25 14 -25 12 0 11 -11 -6 -60 -11 -33 -24 -60
-29 -60 -5 0 -9 -11 -9 -25 0 -23 3 -25 50 -25 47 0 50 2 50 25 0 14 -4 25
-10 25 -5 0 -10 7 -10 16 0 10 7 14 23 12 19 -3 22 -8 19 -40 l-4 -38 61 0
c58 0 61 1 61 24 0 13 -7 26 -15 30 -8 3 -15 11 -15 17 0 7 -9 43 -20 80 l-21
69 -69 0 c-68 0 -70 -1 -70 -25z"/>
<path d="M2720 835 c0 -14 5 -25 10 -25 6 0 10 -27 10 -60 0 -33 -4 -60 -10
-60 -5 0 -10 -11 -10 -25 0 -23 4 -25 45 -25 41 0 45 2 45 25 0 14 -4 25 -10
25 -5 0 -10 15 -9 33 1 30 2 29 27 -26 34 -77 58 -76 87 3 18 50 20 53 23 25
2 -16 -1 -31 -7 -33 -6 -2 -11 -15 -11 -28 0 -23 3 -24 60 -24 57 0 60 1 60
24 0 13 -7 26 -15 30 -11 4 -15 21 -15 61 0 42 3 55 15 55 9 0 15 9 15 25 0
24 -3 25 -58 25 l-59 0 -13 -41 c-8 -22 -17 -42 -21 -45 -4 -2 -15 16 -25 41
l-17 45 -58 0 c-56 0 -59 -1 -59 -25z"/>
<path d="M3100 835 c0 -14 5 -25 10 -25 6 0 10 -27 10 -60 0 -33 -4 -60 -10
-60 -5 0 -10 -11 -10 -25 0 -24 3 -25 55 -25 52 0 55 1 55 24 0 14 -4 28 -10
31 -22 14 -10 35 20 35 30 0 42 -21 20 -35 -5 -3 -10 -17 -10 -31 0 -23 3 -24
55 -24 52 0 55 1 55 25 0 14 -4 25 -10 25 -6 0 -10 27 -10 60 0 33 4 60 10 60
6 0 10 11 10 25 0 24 -3 25 -55 25 -52 0 -55 -1 -55 -25 0 -14 5 -25 10 -25 6
0 10 -7 10 -15 0 -10 -10 -15 -30 -15 -20 0 -30 5 -30 15 0 8 5 15 10 15 6 0
10 11 10 25 0 24 -3 25 -55 25 -52 0 -55 -1 -55 -25z"/>
<path d="M3360 835 c0 -16 6 -25 15 -25 12 0 15 -13 15 -55 0 -40 -4 -57 -15
-61 -8 -4 -15 -17 -15 -30 0 -24 2 -24 90 -24 l90 0 0 50 c0 38 -4 50 -15 50
-9 0 -20 -11 -25 -25 -5 -14 -16 -25 -25 -25 -9 0 -15 9 -15 25 0 16 6 25 15
25 8 0 15 9 15 20 0 11 -7 20 -15 20 -8 0 -15 7 -15 15 0 8 9 15 20 15 11 0
20 -7 20 -15 0 -8 9 -15 20 -15 17 0 20 7 20 40 l0 40 -90 0 c-89 0 -90 0 -90
-25z"/>
<path d="M3580 835 c0 -15 6 -25 14 -25 12 0 11 -11 -6 -60 -11 -33 -24 -60
-29 -60 -5 0 -9 -11 -9 -25 0 -23 3 -25 50 -25 47 0 50 2 50 25 0 14 -4 25
-10 25 -5 0 -10 7 -10 15 0 8 9 15 19 15 23 0 40 -22 23 -28 -7 -2 -12 -15
-12 -28 0 -23 3 -24 65 -24 62 0 65 1 65 24 0 13 -6 26 -14 29 -7 3 -17 18
-20 34 -4 15 -14 52 -22 81 l-15 52 -70 0 c-67 0 -69 -1 -69 -25z"/>
<path d="M3810 835 c0 -14 5 -25 10 -25 6 0 10 -24 10 -54 0 -30 -4 -58 -10
-61 -5 -3 -10 -17 -10 -31 0 -24 2 -24 85 -24 l85 0 0 50 c0 42 -3 50 -19 50
-12 0 -21 -9 -25 -25 -4 -14 -13 -25 -21 -25 -12 0 -15 14 -15 60 0 33 4 60
10 60 6 0 10 11 10 25 0 24 -3 25 -55 25 -52 0 -55 -1 -55 -25z"/>
<path d="M3990 820 c0 -33 4 -40 19 -40 10 0 21 7 25 15 12 33 26 12 26 -40 0
-40 -4 -57 -15 -61 -8 -4 -15 -17 -15 -30 0 -23 3 -24 65 -24 62 0 65 1 65 24
0 13 -7 26 -15 30 -11 4 -15 21 -15 61 0 52 14 73 26 40 4 -8 15 -15 25 -15
15 0 19 7 19 40 l0 40 -105 0 -105 0 0 -40z"/>
<path d="M4220 835 c0 -14 5 -25 10 -25 6 0 10 -27 10 -60 0 -33 -4 -60 -10
-60 -5 0 -10 -11 -10 -25 0 -24 3 -25 55 -25 52 0 55 1 55 24 0 14 -4 28 -10
31 -20 12 -10 35 16 35 24 0 25 -2 18 -45 l-6 -45 56 0 c52 0 56 2 56 24 0 13
-7 26 -15 30 -11 4 -15 21 -15 61 0 42 3 55 15 55 9 0 15 9 15 25 0 24 -3 25
-56 25 l-57 0 7 -40 c6 -38 5 -40 -19 -40 -16 0 -25 6 -25 15 0 8 5 15 10 15
6 0 10 11 10 25 0 24 -3 25 -55 25 -52 0 -55 -1 -55 -25z"/>
<path d="M4770 836 c0 -13 6 -26 12 -28 10 -4 8 -18 -5 -61 -10 -31 -22 -57
-28 -57 -5 0 -9 -11 -9 -25 0 -23 3 -25 50 -25 44 0 50 2 50 21 0 12 -8 28
-17 35 -17 12 -17 13 0 19 25 10 54 -2 39 -17 -7 -7 -12 -22 -12 -35 0 -22 4
-23 65 -23 62 0 65 1 65 24 0 13 -6 26 -14 29 -7 3 -17 18 -20 34 -4 15 -14
52 -22 81 l-15 52 -70 0 c-66 0 -69 -1 -69 -24z"/>
<path d="M4990 835 c0 -16 6 -25 15 -25 12 0 15 -13 15 -55 0 -40 -4 -57 -15
-61 -8 -4 -15 -17 -15 -30 0 -23 3 -24 60 -24 57 0 60 1 60 25 0 14 -4 25 -10
25 -5 0 -10 11 -10 25 0 14 4 25 10 25 13 0 30 -34 30 -59 0 -23 27 -41 64
-41 21 0 26 5 26 24 0 13 -7 26 -15 30 -8 3 -15 14 -15 24 0 10 -5 23 -10 28
-8 8 -6 15 5 24 19 16 19 54 -1 74 -12 12 -37 16 -105 16 -88 0 -89 0 -89 -25z"/>
<path d="M5230 835 c0 -16 6 -25 15 -25 12 0 15 -13 15 -55 0 -40 -4 -57 -15
-61 -8 -4 -15 -17 -15 -30 0 -24 1 -24 95 -24 l95 0 0 50 c0 42 -3 50 -18 50
-11 0 -24 -11 -30 -25 -6 -14 -18 -25 -27 -25 -9 0 -15 9 -15 25 0 16 6 25 15
25 8 0 15 9 15 20 0 11 -7 20 -15 20 -8 0 -15 7 -15 15 0 8 9 15 19 15 10 0
21 -7 25 -15 3 -8 15 -15 26 -15 17 0 20 6 20 40 l0 40 -95 0 c-95 0 -95 0
-95 -25z"/>
</g>
</svg>
